<svg width="128" height="128" viewBox="0 0 128 128" fill="none" xmlns="http://www.w3.org/2000/svg">
<rect width="128" height="128" rx="16" fill="white"/>
<path d="M28.652 59.7447C26.42 59.2078 3.61172 52.3207 1.5 51.5V108C4.52993 105.44 27.5188 90.5356 30.5207 87.9438C33.1901 85.6392 35.9459 83.4237 38.8857 81.4883C40.1119 80.6811 41.2921 80.1846 42.601 79.528C44.3746 78.6384 45.8919 76.9088 47.7402 76.2608C49.0873 75.7886 49.1934 76.7412 49.9427 77.5001C50.7148 78.2821 51.2815 79.3732 52.2453 79.9223C53.7808 80.7971 55.5746 80.8184 57.1508 81.601C59.4039 82.7196 61.9515 83.0081 64.359 83.5838C67.3216 84.2923 70.4285 84.0795 73.447 84.0795C75.2331 84.0795 77.2448 84.1625 78.9977 83.7528C82.217 83.0004 84.3963 81.103 86.4728 78.6493C88.2503 76.549 89.4983 74.618 90.247 72.1749C90.9161 69.9913 91.5199 67.0324 91.5851 65.2477C94.2076 62.6877 98.2761 63.2147 99.6682 63.2147C101.229 63.2147 104.708 62.367 105.859 61.7841C107.049 61.1817 106.733 56.3011 106.649 56.473C106.626 56.5181 105.527 56.546 105.369 56.597C103.648 57.1515 101.558 56.8899 99.763 56.8899C97.6736 56.8899 95.5754 56.6871 93.5226 56.6871H93.4725C91.2529 56.6872 87.7949 56.6874 86.8272 54.7816C85.9081 52.9716 85.0546 51.7659 84.8599 49.6953C84.6685 47.6595 83.6405 46.0334 82.9578 44.1749C82.7008 43.4754 82.6666 42.7243 82.3571 42.0118C82.092 41.4017 81.6439 40.9111 81.3671 40.2881C80.8558 39.1373 80.039 38.222 79.1757 37.3476C77.2896 35.4374 73.741 34.9159 71.2556 34.441C67.652 33.7523 63.3673 34.0331 59.7315 34.2044C58.3474 34.2696 57.0834 34.9552 55.727 35.0043C54.7205 35.0407 53.8691 35.0942 52.8793 35.3197C50.9762 35.7534 49.1962 36.0285 47.5845 37.235C46.0904 38.3534 44.7513 39.0934 43.9248 40.8965C43.1155 42.6619 42.5477 44.576 42.4342 46.5295C42.2012 50.5418 40.7631 54.2934 38.6188 57.6717C37.6701 59.1663 37.2913 60.9614 35.3039 60.9614C33.0857 60.9614 30.8047 60.2625 28.652 59.7447Z" fill="black" stroke="black" stroke-width="3" stroke-linecap="round"/>
<path d="M49.9325 48.0623C50.7443 45.3146 52.4943 43.8833 54.5243 41.8533C56.4157 40.3548 60.1792 41.2513 62.9053 41.4166C66.7547 41.6499 70.665 41.5572 73.9776 43.7656C77.2852 45.9707 78.9589 50.0278 78.9589 53.9526C78.9589 56.7114 79.1655 59.4795 78.4159 62.1564C78.0498 63.4642 77.6759 65.151 76.4801 65.9692C74.8179 67.1065 72.3682 66.9253 70.4599 66.9253C65.2178 66.9253 59.7218 66.5752 54.784 64.6353C50.7951 63.0682 49 59.0075 49 54.9087C49 52.3879 49.216 50.4876 49.9325 48.0623Z" fill="white" stroke="black" stroke-width="3" stroke-linecap="round"/>
<path d="M62.811 53.5395C64.2313 52.6942 67.3734 51.6285 66.612 54.4839C66.3237 55.5647 63.2619 57.4726 63.0353 55.5462C62.963 54.932 62.8084 53.7651 63.4485 53.4451C63.8702 53.2342 64.6425 52.8789 65.101 53.209C65.627 53.5877 65.548 55.8548 65.1246 56.2781C64.1889 57.2139 63.163 55.8639 63.0235 55.0269" stroke="black" stroke-width="3" stroke-linecap="round"/>
</svg>
